<svg width="479" height="479" viewBox="0 0 479 479" fill="none" xmlns="http://www.w3.org/2000/svg">
<path d="M239.493 478.986C371.761 478.986 478.986 371.761 478.986 239.493C478.986 107.225 371.761 0.000488281 239.493 0.000488281C107.225 0.000488281 0.000488281 107.225 0.000488281 239.493C0.000488281 371.761 107.225 478.986 239.493 478.986Z" fill="#FFC500"/>
<path d="M256.469 445.074C124.176 445.074 16.976 337.835 16.976 205.581C16.9432 174.853 22.8258 144.407 34.3028 115.903C11.7894 153.191 -0.0744627 195.936 0.000351661 239.493C0.000351661 371.747 107.239 478.986 239.493 478.986C340.059 478.986 426.147 417.015 461.62 329.171C419.708 398.635 343.493 445.074 256.469 445.074Z" fill="#FF9F1E"/>
<path d="M239.493 0.00039369C188.179 -0.0928701 138.207 16.3866 97.0151 46.9858C153.557 25.1664 215.711 22.5744 273.874 39.6101C273.373 40.2245 272.941 40.8919 272.586 41.6004C265.483 54.8297 279.961 76.3711 304.859 89.7175C329.757 103.064 355.747 103.22 362.849 90.0297C363.526 88.7408 364.012 87.3606 364.293 85.9321C428.761 135.883 470.4 213.971 470.791 301.776C476.247 281.465 479.002 260.524 478.986 239.493C478.986 107.239 371.747 0.00039369 239.493 0.00039369Z" fill="#FFE059"/>
<path d="M382.034 115.833C383.3 109.317 375.271 102.274 364.101 100.103C352.93 97.9314 342.848 101.454 341.581 107.97C340.314 114.486 348.343 121.529 359.514 123.7C370.685 125.872 380.767 122.349 382.034 115.833Z" fill="#FFE059"/>
<path d="M329.918 124.848C331.771 121.638 329.491 116.851 324.825 114.157C320.159 111.463 314.873 111.881 313.02 115.092C311.166 118.302 313.446 123.089 318.113 125.783C322.779 128.477 328.064 128.058 329.918 124.848Z" fill="#FFE059"/>
<path d="M185.21 359.649C181.229 316.215 160.234 318.166 156.254 274.732C152.273 231.298 173.268 229.386 169.288 185.952L125.464 189.893C129.444 233.327 108.449 235.239 112.429 278.674C116.41 322.108 137.405 320.157 141.386 363.591C145.366 407.025 124.605 408.937 128.273 451.63C142.01 458.873 156.427 464.742 171.317 469.152C172.488 467.747 173.698 466.264 174.908 464.703C170.927 421.308 189.151 403.083 185.21 359.649Z" fill="#4795FF"/>
<path d="M133.659 411.239C129.912 421.425 126.634 432.43 128.273 451.63C142.01 458.873 156.428 464.742 171.317 469.151C172.488 467.747 173.698 466.264 174.908 464.703C173.862 453.549 174.269 442.307 176.117 431.259C161.345 425.988 147.124 419.283 133.659 411.239Z" fill="#4778FF"/>
<path d="M268.956 285.932C266.896 285.938 264.873 285.385 263.103 284.332C246.986 275.005 232 275.005 215.883 284.332C213.2 285.852 210.025 286.251 207.048 285.444C204.072 284.636 201.534 282.686 199.987 280.018C198.439 277.351 198.007 274.18 198.784 271.195C199.562 268.211 201.485 265.653 204.137 264.078C215.727 257.366 227.63 253.932 239.493 253.932C251.356 253.932 263.259 257.366 274.849 264.078C277.088 265.367 278.837 267.36 279.825 269.746C280.813 272.133 280.985 274.779 280.312 277.273C279.64 279.767 278.161 281.968 276.107 283.534C274.054 285.101 271.539 285.944 268.956 285.932Z" fill="#00305F"/>
<path d="M193.405 194.537H103.103C99.9979 194.537 97.0201 193.304 94.8245 191.108C92.629 188.913 91.3955 185.935 91.3955 182.83C91.3955 179.725 92.629 176.747 94.8245 174.552C97.0201 172.356 99.9979 171.123 103.103 171.123H193.405C196.51 171.123 199.488 172.356 201.684 174.552C203.879 176.747 205.113 179.725 205.113 182.83C205.113 185.935 203.879 188.913 201.684 191.108C199.488 193.304 196.51 194.537 193.405 194.537Z" fill="#00305F"/>
<path d="M293.776 359.649C297.756 316.215 318.751 318.166 322.732 274.732C326.712 231.298 305.717 229.386 309.698 185.952L353.522 189.893C349.542 233.327 370.537 235.239 366.556 278.674C362.576 322.108 341.581 320.157 337.6 363.591C333.62 407.025 354.381 408.937 350.712 451.63C336.976 458.873 322.558 464.742 307.668 469.152C306.498 467.747 305.288 466.264 304.078 464.703C308.059 421.308 289.834 403.083 293.776 359.649Z" fill="#4795FF"/>
<path d="M304.079 464.703C305.288 466.264 306.498 467.747 307.669 469.151C322.559 464.742 336.977 458.873 350.713 451.629C351.61 441.093 351.025 433.054 349.737 426.225C335.018 432.457 319.708 437.19 304.04 440.351C304.817 448.449 304.83 456.602 304.079 464.703Z" fill="#4778FF"/>
<path d="M285.581 194.537H375.883C378.988 194.537 381.966 193.304 384.162 191.108C386.357 188.913 387.591 185.935 387.591 182.83C387.591 179.725 386.357 176.747 384.162 174.552C381.966 172.356 378.988 171.123 375.883 171.123H285.581C282.476 171.123 279.498 172.356 277.303 174.552C275.107 176.747 273.874 179.725 273.874 182.83C273.874 185.935 275.107 188.913 277.303 191.108C279.498 193.304 282.476 194.537 285.581 194.537Z" fill="#00305F"/>
</svg>
